<svg xmlns="http://www.w3.org/2000/svg" xmlns:xlink="http://www.w3.org/1999/xlink" preserveAspectRatio="xMidYMid" width="166" height="166" viewBox="0 0 166 166">
  <defs>
    <style>

      .cls-2 {
        fill: #ffffff;
        opacity: 0.85;
      }
    </style>
  </defs>
  <path d="M151.819,129.409 C142.871,142.652 130.211,153.167 115.308,159.472 C105.375,163.675 94.441,165.998 83.000,165.997 C65.833,166.000 49.829,160.767 36.591,151.819 C23.348,142.871 12.833,130.211 6.528,115.308 C2.325,105.375 0.002,94.441 0.003,83.000 C-0.000,65.833 5.233,49.829 14.181,36.591 C23.129,23.348 35.789,12.833 50.692,6.528 C60.625,2.325 71.559,0.002 83.000,0.003 C100.167,-0.000 116.171,5.233 129.409,14.181 C142.652,23.129 153.167,35.789 159.472,50.692 C163.675,60.625 165.998,71.559 165.997,83.000 C166.000,100.167 160.767,116.171 151.819,129.409 ZM140.902,43.966 C133.373,32.819 122.698,23.956 110.176,18.661 C101.826,15.131 92.659,13.178 83.000,13.177 C68.516,13.180 55.118,17.568 43.966,25.098 C32.818,32.628 23.956,43.302 18.661,55.824 C15.131,64.174 13.178,73.341 13.177,83.000 C13.180,97.484 17.568,110.882 25.098,122.034 C32.627,133.182 43.302,142.044 55.824,147.339 C64.174,150.869 73.341,152.822 83.000,152.823 C97.484,152.821 110.882,148.432 122.034,140.902 C133.182,133.373 142.044,122.698 147.339,110.176 C150.869,101.826 152.822,92.659 152.823,83.000 C152.821,68.516 148.432,55.118 140.902,43.966 ZM124.149,115.710 C123.397,115.908 122.587,115.955 121.804,115.955 C95.628,115.967 69.451,115.924 43.276,116.004 C38.771,116.018 35.487,112.756 35.067,108.385 C35.014,107.832 35.013,107.272 35.013,106.715 C35.011,90.916 35.019,75.118 35.003,59.319 C35.000,56.877 35.457,54.604 37.085,52.699 C38.587,50.942 40.480,50.059 42.838,50.064 C56.065,50.088 69.293,50.075 82.521,50.075 C95.422,50.075 108.327,50.223 121.225,50.004 C126.604,49.913 129.955,53.717 129.967,58.532 C130.009,74.842 130.008,91.151 129.966,107.461 C129.956,111.598 127.626,114.795 124.149,115.710 ZM120.772,59.155 C95.151,59.155 69.666,59.155 44.222,59.155 C44.222,75.124 44.222,90.980 44.222,106.874 C69.797,106.874 95.244,106.874 120.772,106.874 C120.772,90.935 120.772,75.073 120.772,59.155 ZM92.592,88.223 C94.724,85.339 96.755,82.590 98.905,79.682 C104.369,87.088 109.773,94.412 115.299,101.902 C92.686,101.902 70.314,101.902 47.552,101.902 C56.906,89.972 66.104,78.240 75.415,66.365 C81.147,73.659 86.811,80.867 92.592,88.223 ZM108.379,77.118 C105.008,77.124 102.267,74.393 102.254,71.017 C102.242,67.650 104.977,64.906 108.353,64.898 C111.744,64.890 114.438,67.580 114.456,70.992 C114.473,74.381 111.763,77.113 108.379,77.118 Z" id="path-1" class="cls-2" fill-rule="evenodd"/>
</svg>
