<svg xmlns="http://www.w3.org/2000/svg" xmlns:xlink="http://www.w3.org/1999/xlink" preserveAspectRatio="xMidYMid" width="166" height="166" viewBox="0 0 166 166">
  <defs>
    <style>

      .cls-2 {
        fill: #ffffff;
        opacity: 0.85;
      }
    </style>
  </defs>
  <path d="M151.819,129.409 C142.871,142.652 130.211,153.167 115.308,159.472 C105.375,163.675 94.441,165.998 83.000,165.997 C65.833,166.000 49.829,160.767 36.591,151.819 C23.348,142.871 12.833,130.211 6.528,115.308 C2.325,105.375 0.002,94.441 0.003,83.000 C-0.000,65.834 5.233,49.829 14.181,36.591 C23.129,23.348 35.789,12.833 50.692,6.528 C60.625,2.325 71.559,0.002 83.000,0.003 C100.167,-0.000 116.171,5.233 129.409,14.181 C142.652,23.129 153.167,35.789 159.472,50.692 C163.675,60.625 165.998,71.559 165.997,83.000 C166.000,100.167 160.767,116.171 151.819,129.409 ZM140.902,43.966 C133.373,32.818 122.698,23.956 110.176,18.661 C101.826,15.131 92.659,13.178 83.000,13.177 C68.516,13.180 55.118,17.568 43.966,25.098 C32.818,32.627 23.956,43.302 18.661,55.824 C15.131,64.174 13.178,73.341 13.177,83.000 C13.180,97.484 17.568,110.882 25.098,122.034 C32.627,133.182 43.302,142.044 55.824,147.339 C64.174,150.869 73.341,152.822 83.000,152.823 C97.484,152.821 110.882,148.432 122.034,140.902 C133.182,133.373 142.044,122.698 147.339,110.176 C150.869,101.826 152.822,92.659 152.823,83.000 C152.821,68.516 148.432,55.118 140.902,43.966 ZM120.680,87.134 C120.680,87.134 69.921,122.730 69.921,122.730 C66.138,125.382 60.649,122.935 60.649,118.596 C60.649,118.596 60.649,47.404 60.649,47.404 C60.649,43.065 66.138,40.618 69.921,43.270 C69.921,43.270 120.680,78.866 120.680,78.866 C123.662,80.957 123.662,85.043 120.680,87.134 Z" id="path-1" class="cls-2" fill-rule="evenodd"/>
</svg>
